<svg xmlns="http://www.w3.org/2000/svg" viewBox="0 0 64 64">
  <defs>
    <linearGradient id="app-bg" x1="10" y1="6" x2="54" y2="58" gradientUnits="userSpaceOnUse">
      <stop offset="0" stop-color="#213966"/>
      <stop offset="0.48" stop-color="#0d1a32"/>
      <stop offset="1" stop-color="#050913"/>
    </linearGradient>
    <linearGradient id="orange" x1="18" y1="8" x2="48" y2="58" gradientUnits="userSpaceOnUse">
      <stop offset="0" stop-color="#ffc46b"/>
      <stop offset="0.45" stop-color="#f38b1a"/>
      <stop offset="1" stop-color="#a94d08"/>
    </linearGradient>
    <linearGradient id="metal" x1="18" y1="20" x2="50" y2="52" gradientUnits="userSpaceOnUse">
      <stop offset="0" stop-color="#ffffff"/>
      <stop offset="0.36" stop-color="#d9e5f8"/>
      <stop offset="0.7" stop-color="#8fa8cc"/>
      <stop offset="1" stop-color="#f6fbff"/>
    </linearGradient>
    <radialGradient id="shine" cx="25%" cy="16%" r="70%">
      <stop offset="0" stop-color="#ffffff" stop-opacity="0.55"/>
      <stop offset="0.45" stop-color="#ffffff" stop-opacity="0.08"/>
      <stop offset="1" stop-color="#ffffff" stop-opacity="0"/>
    </radialGradient>
    <filter id="shadow" x="-20%" y="-20%" width="140%" height="140%">
      <feDropShadow dx="0" dy="3" stdDeviation="3" flood-color="#000000" flood-opacity="0.45"/>
    </filter>
  </defs>

  <rect width="64" height="64" rx="16" fill="url(#app-bg)"/>
  <rect x="2" y="2" width="60" height="60" rx="15" fill="url(#shine)"/>
  <rect x="6" y="6" width="52" height="52" rx="13" fill="none" stroke="#355998" stroke-opacity="0.7" stroke-width="2"/>

  <g filter="url(#shadow)">
    <path d="M13 18.5c0-2.5 2-4.5 4.5-4.5h17.2c7.3 0 12.5 4.4 12.5 10.8 0 3.7-1.7 6.5-4.7 8.3 4.4 1.6 7 5.1 7 9.7 0 7.2-5.5 11.9-14.2 11.9H17.5c-2.5 0-4.5-2-4.5-4.5V18.5Z" fill="#f7fbff"/>
    <path d="M23.2 23.1h10.2c2.9 0 4.6 1.4 4.6 3.8 0 2.5-1.8 3.9-4.8 3.9h-10V23.1Zm0 16.1h11.7c3.3 0 5.3 1.6 5.3 4.1 0 2.7-2 4.3-5.4 4.3H23.2v-8.4Z" fill="url(#orange)"/>
  </g>

  <g filter="url(#shadow)">
    <path d="M47.9 15.7a8.5 8.5 0 0 0-10.8 10.8L20.8 42.8a5.3 5.3 0 1 0 7.5 7.5l16.3-16.3a8.5 8.5 0 0 0 10.7-10.9l-5.6 5.6-4.8-1.3-1.3-4.8 5.6-5.6c-.4-.3-.8-.6-1.3-.8Z" fill="url(#metal)"/>
    <path d="M23.2 45.3a1.9 1.9 0 1 0 2.7 2.7 1.9 1.9 0 0 0-2.7-2.7Z" fill="#193660"/>
  </g>

  <circle cx="50.5" cy="50.5" r="7.2" fill="#1d6fff" stroke="#9fc3ff" stroke-width="1.4"/>
  <path d="M47.1 50.5l2.2 2.2 4.7-5" fill="none" stroke="#ffffff" stroke-width="2.4" stroke-linecap="round" stroke-linejoin="round"/>
</svg>
